<svg width="22" height="12" viewBox="0 0 22 12" fill="none" xmlns="http://www.w3.org/2000/svg">
<path d="M0.939453 1.93945H21.0522C21.4424 1.93945 21.7578 1.63232 21.7578 1.25049C21.7578 0.860352 21.4424 0.553223 21.0522 0.553223H0.939453C0.549316 0.553223 0.242188 0.860352 0.242188 1.25049C0.242188 1.63232 0.549316 1.93945 0.939453 1.93945ZM0.939453 6.729H21.0522C21.4424 6.729 21.7578 6.42188 21.7578 6.03174C21.7578 5.6416 21.4424 5.33447 21.0522 5.33447H0.939453C0.549316 5.33447 0.242188 5.6416 0.242188 6.03174C0.242188 6.42188 0.549316 6.729 0.939453 6.729ZM0.939453 11.5103H21.0522C21.4424 11.5103 21.7578 11.2031 21.7578 10.8047C21.7578 10.4229 21.4424 10.1157 21.0522 10.1157H0.939453C0.549316 10.1157 0.242188 10.4229 0.242188 10.8047C0.242188 11.2031 0.549316 11.5103 0.939453 11.5103Z" fill="white"/>
</svg>
