<svg width="20" height="20" viewBox="0 0 20 20" fill="none" xmlns="http://www.w3.org/2000/svg">
<path d="M10.25 19.3152C15.4917 19.3152 19.8335 14.9827 19.8335 9.73175C19.8335 4.49005 15.4917 0.148254 10.2407 0.148254C4.99902 0.148254 0.666504 4.49005 0.666504 9.73175C0.666504 14.9827 5.0083 19.3152 10.25 19.3152ZM10.25 17.4319C5.98242 17.4319 2.55908 13.9993 2.55908 9.73175C2.55908 5.46417 5.97314 2.04083 10.2407 2.04083C14.5083 2.04083 17.9409 5.46417 17.9502 9.73175C17.9502 13.9993 14.5176 17.4319 10.25 17.4319ZM10.2407 9.40704C11.5488 9.41632 12.5972 8.31232 12.5972 6.83722C12.5972 5.46417 11.5488 4.32306 10.2407 4.32306C8.94189 4.32306 7.88428 5.46417 7.88428 6.83722C7.88428 8.31232 8.94189 9.40704 10.2407 9.40704ZM6.14014 14.3704H14.3506C14.7495 14.3704 14.9536 14.0921 14.9536 13.7303C14.9536 12.7283 13.46 10.14 10.2407 10.14C7.02148 10.14 5.53711 12.7283 5.53711 13.7303C5.53711 14.0921 5.73193 14.3704 6.14014 14.3704Z" fill="black"/>
</svg>
