<svg width="24" height="21" viewBox="0 0 24 21" fill="none" xmlns="http://www.w3.org/2000/svg">
<path d="M5.69141 20.8699H18.2437C19.6538 20.8699 20.4795 20.0628 20.4795 18.6898V9.99689L21.6113 10.9432C21.834 11.1287 22.0845 11.2864 22.3721 11.2864C22.9102 11.2864 23.3184 10.9525 23.3184 10.4236C23.3184 10.1082 23.1978 9.85773 22.9565 9.6629L20.4795 7.5755V3.63263C20.4795 3.21515 20.2104 2.94611 19.793 2.94611H18.5405C18.1323 2.94611 17.854 3.21515 17.854 3.63263V5.36749L13.3081 1.54523C12.5103 0.877258 11.5083 0.877258 10.7012 1.54523L1.03418 9.6629C0.792969 9.867 0.672363 10.136 0.672363 10.3958C0.672363 10.8782 1.03418 11.2864 1.62793 11.2864C1.91553 11.2864 2.16602 11.1287 2.38867 10.9432L3.45557 10.0526V18.6898C3.45557 20.0628 4.28125 20.8699 5.69141 20.8699ZM14.6626 12.9656C14.6626 12.5296 14.3843 12.2513 13.9482 12.2513H10.0425C9.61572 12.2513 9.31885 12.5296 9.31885 12.9656V19.0516H6.17383C5.58936 19.0516 5.27393 18.7269 5.27393 18.1424V8.52179L11.6104 3.21515C11.8608 2.99249 12.1484 2.99249 12.3989 3.21515L18.6611 8.46613V18.1424C18.6611 18.7269 18.3457 19.0516 17.7612 19.0516H14.6626V12.9656Z" fill="black"/>
</svg>
