<svg width="24" height="17" viewBox="0 0 24 17" fill="none" xmlns="http://www.w3.org/2000/svg">
<path d="M4.2915 16.4783H13.9492C16.3149 16.4783 17.6973 15.1331 17.6973 12.7952V11.6727L21.0464 14.5115C21.4731 14.8734 21.9277 15.1146 22.3638 15.1146C23.208 15.1146 23.7832 14.5023 23.7832 13.5931V3.90753C23.7832 2.99835 23.208 2.38605 22.3638 2.38605C21.9277 2.38605 21.4731 2.62726 21.0464 2.98907L17.6973 5.82794V4.659C17.6973 2.33038 16.3149 0.985168 13.9492 0.985168H4.2915C2.00928 0.985168 0.543457 2.33038 0.543457 4.66827V12.8602C0.543457 15.1795 1.92578 16.4783 4.2915 16.4783ZM4.59766 14.827C3.14111 14.827 2.31543 14.0569 2.31543 12.5355V4.92804C2.31543 3.388 3.14111 2.62726 4.59766 2.62726H13.6431C15.0996 2.62726 15.9253 3.40656 15.9253 4.92804V12.5355C15.9253 14.0569 15.0903 14.827 13.6431 14.827H4.59766ZM21.7422 13.0086L17.6973 9.69659V7.80402L21.7422 4.492C21.8257 4.42706 21.8813 4.38995 21.9556 4.38995C22.0576 4.38995 22.1133 4.47345 22.1133 4.59406V12.9066C22.1133 13.0364 22.0576 13.1107 21.9556 13.1107C21.8813 13.1107 21.8257 13.0643 21.7422 13.0086Z" fill="black"/>
</svg>
