<svg width="56" height="56" viewBox="0 0 56 56" fill="none" xmlns="http://www.w3.org/2000/svg">
<path d="M28 55.833C43.293 55.833 55.8438 43.2559 55.8438 27.9629C55.8438 12.6963 43.2666 0.119141 28 0.119141C12.707 0.119141 0.15625 12.6963 0.15625 27.9629C0.15625 43.2559 12.7334 55.833 28 55.833ZM28 48.8984C16.4248 48.8984 7.11719 39.5645 7.11719 27.9629C7.11719 16.3877 16.3984 7.05371 28 7.05371C39.5752 7.05371 48.9092 16.3877 48.9092 27.9629C48.9355 39.5645 39.6016 48.8984 28 48.8984ZM22.9902 38.4834L38.415 29.4922C39.5488 28.833 39.5225 27.1455 38.415 26.4863L22.9902 17.4688C21.7773 16.7568 20.2217 17.416 20.2217 18.7344V37.2178C20.2217 38.5361 21.7246 39.2217 22.9902 38.4834Z" fill="white" fill-opacity="0.9"/>
</svg>
